#!OML:ASF F:\VICON\USERDATA\INSTALL\rory3\rory3.ASF
:FULLY-SPECIFIED
:DEGREES
336
root 0.722126 17.5515 34.1095 -1.39384 -4.28092 -4.23611
lowerback 7.79026 2.57241 4.71495
upperback 0.158111 3.89914 1.26494
thorax -3.97649 1.85362 -1.75409
lowerneck -14.6942 -3.5516 -1.9195
upperneck 20.7295 -4.73138 1.14283
head 8.9966 -2.24406 0.139197
rclavicle -2.69664e-014 -1.55052e-014
rhumerus -19.4973 -11.7963 -82.0857
rradius 33.2565
rwrist -0.44664
rhand -19.7069 24.468
rfingers 7.12502
rthumb 6.62281 -5.40849
lclavicle -2.69664e-014 -1.55052e-014
lhumerus -40.2842 19.1929 71.9121
lradius 14.0661
lwrist -5.92648
lhand -27.8814 22.5388
lfingers 7.12502
lthumb -1.27138 52.5148
rfemur 11.6416 5.64189 30.5771
rtibia 36.2719
rfoot -11.5973 -0.765361
rtoes -6.43546
lfemur -26.1158 -3.051 -15.136
ltibia 23.5477
lfoot -0.235557 -6.75724
ltoes -0.0102276
337
root 0.749903 17.5595 34.3393 -1.61851 -3.84855 -3.63028
lowerback 7.33786 2.50237 4.35982
upperback 0.478128 3.72777 1.04489
thorax -3.40763 1.79227 -1.73285
lowerneck -15.188 -3.60517 -2.06369
upperneck 20.8945 -4.79884 1.29189
head 9.15364 -2.26537 0.194406
rclavicle 2.24565e-015 -3.57812e-015
rhumerus -19.4482 -12.614 -82.0608
rradius 32.9785
rwrist -0.137469
rhand -19.6798 24.4564
rfingers 7.12502
rthumb 6.64893 -5.41917
lclavicle 2.24565e-015 -3.57812e-015
lhumerus -39.8485 19.6506 71.8042
lradius 13.8339
lwrist -6.23747
lhand -27.9172 21.8752
lfingers 7.12502
lthumb -1.30591 51.8509
rfemur 11.263 4.98397 29.5668
rtibia 38.1418
rfoot -9.2174 0.0957334
rtoes -6.06619
lfemur -25.7316 -3.18125 -16.1296
ltibia 24.5619
lfoot -0.139833 -7.48843
ltoes 1.24831
338
root 0.770028 17.5661 34.5638 -1.98978 -3.71743 -3.37418
lowerback 7.87856 2.51471 4.14161
upperback 0.317941 3.7585 0.983994
thorax -3.8849 1.79689 -1.71159
lowerneck -15.1887 -3.67799 -2.06774
upperneck 21.1608 -4.90671 1.29489
head 9.24831 -2.31396 0.18017
rclavicle 3.97569e-014 1.15295e-014
rhumerus -20.095 -13.1948 -81.7863
rradius 32.4029
rwrist -0.126926
rhand -19.5764 24.6313
rfingers 7.12502
rthumb 6.74879 -5.24111
lclavicle 3.97569e-014 1.15295e-014
lhumerus -40.2269 19.7191 71.5719
lradius 13.9087
lwrist -6.54937
lhand -27.674 21.9259
lfingers 7.12502
lthumb -1.07105 51.903
rfemur 10.8322 4.52578 28.971
rtibia 40.1287
rfoot -6.34936 0.92433
rtoes -5.60865
lfemur -25.2699 -3.02299 -16.7112
ltibia 25.8778
lfoot -0.977215 -7.31937
ltoes 1.26726
339
root 0.792119 17.5664 34.7849 -2.07665 -3.73927 -3.72845
lowerback 7.88574 2.4801 4.55696
upperback 0.22566 3.75775 1.08534
thorax -3.96593 1.78636 -1.84075
lowerneck -14.9605 -3.70729 -1.90131
upperneck 21.0823 -4.94468 1.09314
head 9.16919 -2.34335 0.084493
rclavicle -4.13565e-014 -1.90833e-014
rhumerus -20.7506 -13.4934 -81.672
rradius 32.2208
rwrist -0.0317403
rhand -19.324 24.644
rfingers 7.12502
rthumb 6.99238 -5.22055
lclavicle -4.13565e-014 -1.90833e-014
lhumerus -40.6 19.7025 71.5024
lradius 14.2301
lwrist -6.5135
lhand -27.682 22.0786
lfingers 7.12502
lthumb -1.07877 52.0557
rfemur 10.0068 4.31953 29.0595
rtibia 42.1657
rfoot -3.1161 1.50609
rtoes -4.69285
lfemur -25.1722 -2.54895 -16.6797
ltibia 27.3424
lfoot -2.24179 -7.11249
ltoes -2.01172
340
root 0.821407 17.5655 34.9923 -2.0822 -3.75603 -3.82274
lowerback 7.84896 2.44659 4.83124
upperback 0.155901 3.73762 1.06813
thorax -4.00103 1.76906 -2.00899
lowerneck -14.8018 -3.65795 -1.70115
upperneck 20.942 -4.88092 0.903016
head 9.07944 -2.3209 -0.00056432
rclavicle -1.50191e-014 -3.77691e-015
rhumerus -21.5583 -14.0782 -81.5651
rradius 32.4961
rwrist 0.438887
rhand -18.848 24.4886
rfingers 7.12502
rthumb 7.45188 -5.36017
lclavicle -1.50191e-014 -3.77691e-015
lhumerus -40.7959 19.3909 71.6572
lradius 14.617
lwrist -6.00248
lhand -27.3632 22.3626
lfingers 7.12502
lthumb -0.770841 52.3409
rfemur 8.96377 4.02776 28.758
rtibia 44.2862
rfoot 0.190911 2.21219
rtoes -5.51975
lfemur -25.1807 -2.12041 -16.8968
ltibia 28.7083
lfoot -2.76533 -7.58824
ltoes -0.264445
341
root 0.848119 17.5699 35.1976 -2.29269 -3.87393 -3.97588
lowerback 8.11373 2.46949 5.13317
upperback 0.120024 3.8162 1.12326
thorax -4.16648 1.79698 -2.14312
lowerneck -14.9131 -3.65425 -1.77215
upperneck 21.124 -4.86152 0.90819
head 9.16482 -2.3148 0.0111234
rclavicle 2.75099e-014 -9.93923e-017
rhumerus -22.2706 -14.5923 -81.3312
rradius 32.5174
rwrist 0.80309
rhand -18.7361 24.4882
rfingers 7.12502
rthumb 7.55992 -5.35669
lclavicle 2.75099e-014 -9.93923e-017
lhumerus -40.9401 19.1659 71.8517
lradius 14.9759
lwrist -5.22645
lhand -26.8934 22.2722
lfingers 7.12502
lthumb -0.317153 52.2517
rfemur 8.03674 3.79318 28.5495
rtibia 46.4972
rfoot 3.4193 2.92771
rtoes -6.83547
lfemur -24.8369 -1.8049 -16.9819
ltibia 29.8544
lfoot -2.98609 -8.31051
ltoes 2.93904
342
root 0.874446 17.5895 35.4083 -2.5543 -4.07691 -3.68034
lowerback 8.45208 2.49806 4.93147
upperback 0.0923116 3.85532 1.06801
thorax -4.39166 1.8129 -2.11206
lowerneck -14.9737 -3.59346 -1.906
upperneck 21.273 -4.79326 1.1084
head 9.23589 -2.27012 0.10719
rclavicle 2.89014e-015 1.53064e-014
rhumerus -22.7583 -15.0078 -81.2002
rradius 32.1976
rwrist 1.0626
rhand -18.8282 24.6274
rfingers 7.12502
rthumb 7.47095 -5.22071
lclavicle 2.89014e-015 1.53064e-014
lhumerus -41.0325 18.8993 72.1151
lradius 15.2783
lwrist -4.278
lhand -26.9283 23.141
lfingers 7.12502
lthumb -0.350827 53.1205
rfemur 7.0264 3.74444 27.8736
rtibia 48.8329
rfoot 6.74402 3.31541
rtoes -4.67701
lfemur -24.1835 -1.59222 -17.5765
ltibia 30.6419
lfoot -3.55915 -8.2924
ltoes 4.13627
343
root 0.896632 17.6132 35.6067 -2.72471 -4.3788 -3.27811
lowerback 8.78056 2.56002 4.54547
upperback 0.0355146 3.91785 0.990489
thorax -4.6509 1.84337 -2.00528
lowerneck -14.8694 -3.51358 -1.96427
upperneck 21.2727 -4.6962 1.22086
head 9.21945 -2.21802 0.169231
rclavicle -2.25186e-015 1.0635e-014
rhumerus -23.4211 -15.1888 -81.1188
rradius 32.2546
rwrist 1.05366
rhand -18.7844 24.425
rfingers 7.12502
rthumb 7.51322 -5.42154
lclavicle -2.25186e-015 1.0635e-014
lhumerus -41.1067 18.314 72.6154
lradius 15.7801
lwrist -3.20695
lhand -27.2787 23.7399
lfingers 7.12502
lthumb -0.689231 53.7185
rfemur 5.71724 4.01488 27.2
rtibia 51.2981
rfoot 10.2437 3.37649
rtoes -0.293758
lfemur -23.5343 -1.40145 -18.2603
ltibia 31.1862
lfoot -4.35141 -7.63184
ltoes 2.70735
